<svg width="895" height="332" viewBox="0 0 895 332" fill="none" xmlns="http://www.w3.org/2000/svg"><path d="M0.206543 33.6709H205.318V298.331H0.206543V33.6709Z" fill="url(#paint0_linear_709_2962)"/><path d="M0.206543 33.6709L162.973 0.587402V331.413L0.206543 298.331V33.6709Z" fill="#F1F1FB"/> <path d="M292.095 62.1303H311.189V135.128H292.095V62.1303ZM345.118 60.5146C349.622 60.5146 353.783 61.1022 357.602 62.2772C361.421 63.4522 364.75 65.2637 367.59 67.7116C370.43 70.1596 372.633 73.293 374.199 77.1118C375.766 80.8327 376.549 85.288 376.549 90.4777V135.128H357.455V93.8558C357.455 87.687 355.938 83.1827 352.902 80.3431C349.965 77.4056 345.118 75.9368 338.361 75.9368C333.27 75.9368 328.667 76.916 324.555 78.8743C320.442 80.8327 317.113 83.3296 314.567 86.3651C312.021 89.3026 310.552 92.3871 310.161 95.6184L310.014 88.1276C310.504 84.7005 311.63 81.3712 313.392 78.1399C315.155 74.9086 317.505 71.9711 320.442 69.3273C323.478 66.5856 327.052 64.4314 331.164 62.8647C335.277 61.298 339.928 60.5146 345.118 60.5146ZM456.063 110.894H474.57C473.786 115.887 471.681 120.343 468.254 124.259C464.925 128.176 460.371 131.261 454.594 133.513C448.817 135.765 441.767 136.891 433.444 136.891C424.142 136.891 415.916 135.422 408.768 132.485C401.62 129.449 396.039 125.092 392.024 119.413C388.01 113.733 386.002 106.879 386.002 98.8497C386.002 90.8204 387.961 83.9661 391.877 78.2868C395.794 72.5096 401.229 68.1033 408.181 65.0678C415.231 62.0324 423.456 60.5146 432.856 60.5146C442.452 60.5146 450.433 62.0324 456.797 65.0678C463.162 68.1033 467.862 72.7055 470.898 78.8743C474.031 84.9453 475.353 92.7298 474.863 102.228H405.243C405.733 105.949 407.104 109.327 409.356 112.362C411.706 115.398 414.839 117.797 418.756 119.559C422.771 121.322 427.52 122.203 433.003 122.203C439.074 122.203 444.117 121.175 448.132 119.119C452.244 116.965 454.888 114.223 456.063 110.894ZM431.975 75.0555C424.925 75.0555 419.197 76.6222 414.79 79.7556C410.384 82.7911 407.544 86.5609 406.271 91.0652H455.916C455.426 86.1692 453.076 82.3015 448.866 79.4618C444.753 76.5243 439.123 75.0555 431.975 75.0555ZM564.058 62.1303L526.164 102.815L498.844 135.128H475.491L515.001 92.3871L540.851 62.1303H564.058ZM475.491 62.1303H498.844L526.457 92.0933L566.114 135.128H542.761L514.413 103.256L475.491 62.1303ZM568.351 62.1303H625.046V76.9649H568.351V62.1303ZM587.151 42.155H606.245V135.128H587.151V42.155ZM378.753 246.34C378.263 252.705 376.207 258.189 372.584 262.791C369.059 267.393 364.163 270.918 357.896 273.366C351.629 275.716 344.187 276.891 335.571 276.891C326.562 276.891 318.484 275.471 311.336 272.632C304.286 269.694 298.704 265.435 294.592 259.853C290.577 254.174 288.57 247.173 288.57 238.85C288.57 230.527 290.577 223.525 294.592 217.846C298.704 212.167 304.286 207.859 311.336 204.921C318.484 201.983 326.562 200.515 335.571 200.515C344.187 200.515 351.58 201.739 357.749 204.187C363.918 206.537 368.765 209.964 372.29 214.468C375.913 218.972 378.018 224.407 378.606 230.771H361.127C359.463 225.875 356.378 222.057 351.874 219.315C347.37 216.573 341.935 215.202 335.571 215.202C330.479 215.202 325.828 216.084 321.617 217.846C317.505 219.609 314.175 222.253 311.63 225.778C309.182 229.205 307.958 233.562 307.958 238.85C307.958 244.039 309.182 248.397 311.63 251.922C314.078 255.349 317.407 257.944 321.617 259.706C325.828 261.371 330.479 262.203 335.571 262.203C342.425 262.203 348.006 260.832 352.315 258.091C356.721 255.349 359.707 251.432 361.274 246.34H378.753ZM455.062 275.128V235.031C455.062 231.016 454.377 227.687 453.006 225.043C451.635 222.399 449.432 220.392 446.397 219.021C443.459 217.65 439.493 216.965 434.5 216.965C429.702 216.965 425.344 217.895 421.427 219.756C417.511 221.518 414.328 223.868 411.88 226.806C409.432 229.645 408.062 232.681 407.768 235.912L407.621 227.834C408.111 224.603 409.237 221.371 410.999 218.14C412.762 214.909 415.112 211.971 418.049 209.327C420.987 206.683 424.512 204.578 428.624 203.012C432.835 201.347 437.535 200.515 442.725 200.515C447.229 200.515 451.39 201.102 455.209 202.277C459.028 203.354 462.357 205.068 465.197 207.418C468.037 209.768 470.24 212.705 471.806 216.231C473.373 219.658 474.156 223.721 474.156 228.421V275.128H455.062ZM389.702 275.128V172.755H408.796V275.128H389.702ZM522.648 276.744C515.402 276.744 508.792 275.177 502.819 272.044C496.944 268.813 492.244 264.357 488.719 258.678C485.292 252.901 483.578 246.243 483.578 238.703C483.578 230.967 485.341 224.26 488.866 218.581C492.391 212.901 497.14 208.495 503.113 205.362C509.184 202.13 516.038 200.515 523.676 200.515C532.097 200.515 538.853 202.228 543.945 205.655C549.135 208.985 552.905 213.538 555.255 219.315C557.605 225.092 558.78 231.555 558.78 238.703C558.78 243.011 558.094 247.418 556.723 251.922C555.353 256.328 553.247 260.441 550.408 264.259C547.568 267.98 543.847 271.016 539.245 273.366C534.643 275.618 529.11 276.744 522.648 276.744ZM528.817 262.056C534.594 262.056 539.588 261.077 543.798 259.119C548.009 257.16 551.24 254.419 553.492 250.894C555.744 247.369 556.87 243.305 556.87 238.703C556.87 233.709 555.695 229.498 553.345 226.071C551.093 222.546 547.862 219.902 543.651 218.14C539.539 216.279 534.594 215.349 528.817 215.349C520.689 215.349 514.374 217.503 509.869 221.812C505.365 226.022 503.113 231.653 503.113 238.703C503.113 243.403 504.19 247.515 506.344 251.041C508.499 254.468 511.485 257.16 515.304 259.119C519.221 261.077 523.725 262.056 528.817 262.056ZM556.87 202.13H575.964V275.128H558.192C558.192 275.128 558.045 274.198 557.752 272.338C557.556 270.379 557.36 267.931 557.164 264.994C556.968 262.056 556.87 259.168 556.87 256.328V202.13ZM642.009 276.891C635.546 276.891 630.014 275.765 625.412 273.513C620.907 271.163 617.235 268.127 614.396 264.406C611.556 260.588 609.451 256.426 608.08 251.922C606.709 247.418 606.024 243.011 606.024 238.703C606.024 233.317 606.66 228.323 607.933 223.721C609.304 219.119 611.409 215.104 614.249 211.677C617.089 208.152 620.76 205.411 625.265 203.452C629.867 201.494 635.448 200.515 642.009 200.515C649.353 200.515 655.962 202.13 661.837 205.362C667.712 208.593 672.363 213.097 675.791 218.874C679.316 224.554 681.078 231.163 681.078 238.703C681.078 246.438 679.316 253.195 675.791 258.972C672.266 264.651 667.565 269.057 661.69 272.191C655.815 275.324 649.255 276.891 642.009 276.891ZM635.84 262.056C641.03 262.056 645.534 261.077 649.353 259.119C653.269 257.16 656.256 254.468 658.312 251.041C660.466 247.515 661.543 243.403 661.543 238.703C661.543 231.653 659.291 225.973 654.787 221.665C650.381 217.357 644.065 215.202 635.84 215.202C630.65 215.202 625.901 216.133 621.593 217.993C617.382 219.854 614.053 222.546 611.605 226.071C609.157 229.498 607.933 233.709 607.933 238.703C607.933 243.403 609.059 247.515 611.311 251.041C613.563 254.468 616.795 257.16 621.005 259.119C625.216 261.077 630.161 262.056 635.84 262.056ZM588.839 202.13H607.052L607.933 221.518V304.504H588.839V202.13ZM685.577 202.13H742.272V216.965H685.577V202.13ZM704.378 182.155H723.472V275.128H704.378V182.155ZM815.528 250.894H834.035C833.252 255.887 831.146 260.343 827.719 264.259C824.39 268.176 819.837 271.261 814.06 273.513C808.282 275.765 801.232 276.891 792.909 276.891C783.607 276.891 775.382 275.422 768.234 272.485C761.086 269.449 755.504 265.092 751.49 259.413C747.475 253.733 745.468 246.879 745.468 238.85C745.468 230.82 747.426 223.966 751.343 218.287C755.26 212.51 760.694 208.103 767.646 205.068C774.696 202.032 782.922 200.515 792.322 200.515C801.918 200.515 809.898 202.032 816.263 205.068C822.628 208.103 827.328 212.705 830.363 218.874C833.496 224.945 834.818 232.73 834.329 242.228H764.709C765.198 245.949 766.569 249.327 768.821 252.362C771.171 255.398 774.305 257.797 778.222 259.559C782.236 261.322 786.985 262.203 792.469 262.203C798.54 262.203 803.582 261.175 807.597 259.119C811.71 256.965 814.353 254.223 815.528 250.894ZM791.441 215.056C784.39 215.056 778.662 216.622 774.256 219.756C769.85 222.791 767.01 226.561 765.737 231.065H815.382C814.892 226.169 812.542 222.301 808.331 219.462C804.219 216.524 798.589 215.056 791.441 215.056ZM844.131 202.13H863.225V275.128H844.131V202.13ZM891.278 217.846C885.795 217.846 881.046 218.923 877.031 221.077C873.016 223.134 869.785 225.68 867.337 228.715C864.889 231.751 863.176 234.688 862.196 237.528L862.05 229.45C862.147 228.274 862.539 226.561 863.225 224.309C863.91 221.959 864.938 219.462 866.309 216.818C867.68 214.076 869.491 211.481 871.743 209.034C873.996 206.488 876.737 204.431 879.969 202.865C883.2 201.298 886.97 200.515 891.278 200.515V217.846Z" fill="#F1F1FB"/><defs><linearGradient id="paint0_linear_709_2962" x1="164.884" y1="226.183" x2="211.867" y2="226.183" gradientUnits="userSpaceOnUse"><stop stop-color="#F1F1FB" stop-opacity="0.5"/><stop offset="0.843756" stop-color="#F1F1FB"/></linearGradient></defs></svg>
