<svg xmlns="http://www.w3.org/2000/svg" version="1.1" viewBox="0 0 154 154"><path d="m107.47 52.055-15.951 3.4597 13.561 8.6037-17.721-2.8608-11.422-9.486-11.112 9.9138-18.02 2.465 13.619-8.347-16.02-3.7484 15.726-2.1816-13.668-9.0529 15.748 3.0907-8.9245-13.79 13.309 8.9994-2.9036-16.133 9.2293 13.395 3.0159-15.86 3.3901 15.935 8.8817-13.454-2.9035 16.132 12.946-9.3576-8.8176 13.764 15.886-2.9517-13.421 8.9085 15.571 2.5559z" fill="#DAA520"/><path d="m66.664 53.472-29.805 70.38h29.768l1.556-11.609h13.999l1.1496 11.609h31.693l-30.356-72.391h-17.143l-0.5989 1.4117-0.262 0.5989zm10.16 5.005 1.2192 12.299h-4.3366l1.647-12.299h1.4704zm-7.053 41.708 2.8127-21.02h6.299l2.0854 21.02h-11.197z" fill="#fff"/></svg>
